<?xml version="1.0" encoding="UTF-8" standalone="no"?>
<svg
   xmlns:dc="http://purl.org/dc/elements/1.1/"
   xmlns:cc="http://creativecommons.org/ns#"
   xmlns:rdf="http://www.w3.org/1999/02/22-rdf-syntax-ns#"
   xmlns:svg="http://www.w3.org/2000/svg"
   xmlns="http://www.w3.org/2000/svg"
   id="svg8"
   version="1.1"
   viewBox="0 0 210 297"
   height="297mm"
   width="210mm">
  <defs
     id="defs2" />
  <metadata
     id="metadata5">
    <rdf:RDF>
      <cc:Work
         rdf:about="">
        <dc:format>image/svg+xml</dc:format>
        <dc:type
           rdf:resource="http://purl.org/dc/dcmitype/StillImage" />
        <dc:title></dc:title>
      </cc:Work>
    </rdf:RDF>
  </metadata>
  <g
     id="layer1">
    <circle
       r="67.619186"
       cy="148.88683"
       cx="103.52502"
       id="path4948"
       style="opacity:1;fill:none;fill-opacity:1;stroke:#66cc99;stroke-width:2;stroke-linecap:round;stroke-linejoin:miter;stroke-miterlimit:4;stroke-dasharray:none;stroke-dashoffset:0;stroke-opacity:1;paint-order:normal" />
    <path
       id="path4758-7"
       d="m 114.70838,137.85173 c -0.48622,7.50708 -4.0817,11.82666 -10.69615,17.84025 -9.905272,-4.28263 -14.422112,-12.41059 -14.699822,-17.30571 -0.39499,-6.96232 0.0715,-18.99737 13.630752,-18.90932 7.42454,0.0482 12.43199,8.08031 11.76522,18.37478 z"
       style="opacity:0.62699998;fill:#c8043f;fill-opacity:1;stroke:none;stroke-width:1;stroke-linecap:round;stroke-linejoin:miter;stroke-miterlimit:4;stroke-dasharray:none;stroke-dashoffset:0;stroke-opacity:1;paint-order:normal" />
    <path
       id="path4758-2-97"
       d="m 124.53117,149.416 c -6.04304,4.48046 -11.61777,7.10254 -20.51894,6.27598 -2.71816,-7.26128 0.23536,-18.48386 3.66177,-21.99086 4.87339,-4.98799 19.41811,-9.15367 23.0204,-4.69703 4.66734,5.77426 0.0154,15.83096 -6.16323,20.41191 z"
       style="opacity:0.62699998;fill:#c8043f;fill-opacity:1;stroke:none;stroke-width:1;stroke-linecap:round;stroke-linejoin:miter;stroke-miterlimit:4;stroke-dasharray:none;stroke-dashoffset:0;stroke-opacity:1;paint-order:normal" />
    <path
       id="path4758-2-9-6"
       d="m 119.52268,169.18373 c -14.0527,-3.59155 -12.11807,-8.40095 -15.51045,-13.49175 7.05739,-4.22932 13.50016,-8.35008 20.54985,-6.71504 6.7932,1.57555 16.58645,7.72558 14.31005,12.98448 -2.10049,4.85249 -11.34362,9.26842 -19.34945,7.22231 z"
       style="opacity:0.62699998;fill:#c8043f;fill-opacity:1;stroke:none;stroke-width:1;stroke-linecap:round;stroke-linejoin:miter;stroke-miterlimit:4;stroke-dasharray:none;stroke-dashoffset:0;stroke-opacity:1;paint-order:normal" />
    <path
       id="path4758-3-9"
       d="m 92.418088,139.58172 c 5.59467,3.33409 5.35631,8.06087 11.594142,16.11026 -12.341712,6.34834 -17.600752,5.35225 -22.004362,3.19643 -10.43695,-5.10947 -11.42157,-14.82516 -9.3943,-18.41434 3.65149,-6.46474 10.94276,-6.17344 19.80452,-0.89235 z"
       style="opacity:0.62699998;fill:#c8043f;fill-opacity:1;stroke:none;stroke-width:1;stroke-linecap:round;stroke-linejoin:miter;stroke-miterlimit:4;stroke-dasharray:none;stroke-dashoffset:0;stroke-opacity:1;paint-order:normal" />
    <path
       id="path4758-3-1-1"
       d="m 87.277538,158.95457 c 3.5209,-5.69788 10.69244,-4.99929 16.734692,-3.26259 5.40259,5.3908 8.89297,6.28958 5.44,14.77301 -1.92472,4.72873 -9.42022,6.3049 -17.203282,2.83516 -6.78135,-3.02318 -8.54544,-8.56169 -4.97141,-14.34558 z"
       style="opacity:0.62699998;fill:#c8043f;fill-opacity:1;stroke:none;stroke-width:1;stroke-linecap:round;stroke-linejoin:miter;stroke-miterlimit:4;stroke-dasharray:none;stroke-dashoffset:0;stroke-opacity:1;paint-order:normal" />
    <path
       id="path4758-3-1-1-0"
       d="m 99.206898,151.3215 c 1.092692,-1.99951 4.540592,-2.45622 6.449172,-1.32447 1.76227,1.045 3.1141,4.15627 2.09645,5.99718 -1.12707,2.03884 -4.7052,2.35775 -6.62975,1.15095 -1.675892,-1.05087 -2.888892,-4.04312 -1.915872,-5.82366 z"
       style="opacity:1;fill:#c8043f;fill-opacity:1;stroke:none;stroke-width:0.39553231;stroke-linecap:round;stroke-linejoin:miter;stroke-miterlimit:4;stroke-dasharray:none;stroke-dashoffset:0;stroke-opacity:1;paint-order:normal" />
  </g>
</svg>
